<?xml version="1.0" standalone="no"?>
<!DOCTYPE svg PUBLIC "-//W3C//DTD SVG 20010904//EN"
 "http://www.w3.org/TR/2001/REC-SVG-20010904/DTD/svg10.dtd">
<svg version="1.0" xmlns="http://www.w3.org/2000/svg"
 width="1024.000000pt" height="1024.000000pt" viewBox="0 0 1024.000000 1024.000000"
 preserveAspectRatio="xMidYMid meet">

<g transform="translate(0.000000,1024.000000) scale(0.100000,-0.100000)"
fill="#000000" stroke="none">
<path d="M5077 8079 c-118 -29 -193 -112 -206 -229 l-6 -54 -65 -13 c-113 -23
-222 -55 -211 -63 13 -8 -31 -30 -57 -29 -11 0 -6 6 13 15 l30 15 -30 -6
c-132 -28 -605 -255 -605 -291 0 -25 16 -21 85 18 252 144 524 252 783 311
l62 14 18 -41 19 -41 -75 -60 c-153 -123 -386 -320 -503 -427 -89 -81 -125
-107 -138 -102 -69 31 -131 3 -152 -66 -11 -35 -18 -42 -63 -59 -93 -34 -168
-59 -416 -136 -135 -42 -301 -94 -370 -116 -69 -21 -132 -39 -140 -39 -17 0
-55 84 -46 99 16 25 554 391 698 475 33 19 45 32 41 42 -3 9 -13 14 -22 11
-35 -9 -461 -291 -693 -459 l-57 -41 -62 33 c-52 27 -73 33 -128 33 -122 1
-221 -68 -255 -177 -32 -101 -11 -182 67 -263 l40 -42 -33 -73 c-118 -264
-205 -591 -226 -853 -7 -82 -6 -85 15 -85 17 0 21 6 21 29 0 62 32 271 61 396
51 226 180 581 206 570 8 -3 32 -8 53 -11 38 -6 38 -7 45 -63 20 -163 118
-693 166 -897 10 -45 10 -55 -5 -75 -21 -30 -21 -98 0 -128 10 -14 14 -33 10
-49 -3 -15 -24 -106 -46 -202 -53 -223 -130 -629 -130 -682 0 -10 6 -18 14
-18 17 0 21 14 31 85 10 73 71 396 94 495 11 47 32 140 47 208 l27 122 35 0
c25 0 43 9 68 34 40 40 44 75 14 123 -18 31 -34 39 -90 45 -19 2 -26 11 -32
38 -93 444 -168 852 -168 920 0 35 2 37 53 53 99 31 163 109 176 212 l6 50 95
32 c52 17 214 68 360 114 146 45 322 101 392 125 70 24 132 44 138 44 7 0 25
-11 42 -25 44 -38 91 -34 135 10 33 33 35 39 31 83 l-5 47 96 87 c250 226 577
498 598 498 6 0 18 -9 27 -19 31 -34 115 -63 182 -63 99 1 210 68 235 144 7
22 19 42 26 45 34 13 345 -79 528 -157 102 -43 308 -148 357 -182 32 -22 34
-22 42 -3 7 19 -63 64 -214 140 -106 53 -279 126 -330 139 l-25 7 25 -15 c30
-19 20 -20 -32 -4 -24 7 -37 16 -34 24 6 17 -143 57 -181 49 -20 -5 -24 -4
-14 3 10 7 0 13 -38 21 -29 6 -59 11 -66 11 -10 0 -15 10 -15 28 0 91 -70 201
-153 240 -52 25 -120 34 -170 21z m107 -60 c14 -7 23 -16 20 -21 -4 -6 3 -23
15 -39 22 -30 26 -41 14 -37 -5 2 -23 -3 -40 -11 -22 -9 -50 -11 -85 -7 -74 9
-84 17 -64 49 12 17 14 27 6 32 -6 3 -8 11 -4 16 16 27 95 37 138 18z m446
-291 c10 -6 3 -7 -20 -2 -19 3 -42 10 -50 16 -10 6 -3 7 20 2 19 -3 42 -10 50
-16z m285 -98 c3 -6 -1 -7 -9 -4 -18 7 -21 14 -7 14 6 0 13 -4 16 -10z m-3057
-836 c26 -17 30 -36 5 -27 -17 7 -17 5 -2 -17 15 -23 14 -25 -15 -50 -24 -20
-40 -25 -85 -24 -58 1 -101 6 -101 12 0 1 7 17 16 34 13 24 13 32 3 39 -10 6
-10 10 0 23 30 36 130 42 179 10z"/>
<path d="M5410 7606 c0 -2 8 -10 18 -17 15 -13 16 -12 3 4 -13 16 -21 21 -21
13z"/>
<path d="M5517 7544 c5 -13 3 -15 -7 -9 -28 17 2 -15 53 -56 28 -24 44 -34 35
-23 -21 24 -23 38 -5 28 21 -13 -26 37 -55 58 -25 17 -27 17 -21 2z"/>
<path d="M5610 7476 c0 -2 8 -10 18 -17 15 -13 16 -12 3 4 -13 16 -21 21 -21
13z"/>
<path d="M5620 7437 c0 -3 46 -44 103 -92 56 -48 150 -131 208 -184 l105 -96
-4 -43 c-6 -51 11 -88 50 -108 43 -22 83 -17 120 15 23 19 39 27 48 21 26 -14
498 -167 710 -230 113 -34 216 -65 229 -69 20 -6 27 -18 37 -68 7 -33 19 -74
27 -90 31 -60 107 -112 203 -138 8 -3 9 -17 4 -47 -5 -24 -16 -92 -25 -153
-27 -176 -108 -595 -150 -772 -4 -19 -12 -23 -41 -23 -46 0 -94 -45 -94 -89 0
-63 30 -95 101 -110 l33 -7 28 -114 c63 -266 148 -711 148 -777 0 -14 -6 -23
-16 -23 -31 0 -124 -52 -155 -87 -44 -51 -62 -98 -64 -172 l-1 -64 -255 -86
c-140 -47 -365 -122 -501 -165 l-246 -79 -27 21 c-42 33 -99 30 -137 -8 -28
-28 -30 -36 -26 -80 l5 -49 -145 -118 c-79 -65 -235 -191 -345 -280 l-202
-161 -42 30 c-23 17 -66 39 -95 49 l-53 18 0 203 0 203 118 7 c403 24 847 197
1168 456 120 97 300 290 376 404 223 334 331 732 293 1078 -63 571 -355 1042
-850 1372 -454 302 -1052 412 -1570 287 -364 -87 -603 -207 -895 -450 -333
-277 -558 -682 -626 -1124 -15 -101 -15 -324 1 -435 83 -601 494 -1126 1090
-1395 242 -109 510 -178 748 -192 l102 -6 0 -209 c0 -202 -1 -208 -20 -208
-31 0 -87 -26 -129 -59 l-38 -30 -89 71 c-49 39 -202 165 -340 279 l-250 208
0 51 c1 46 -3 55 -32 81 -39 35 -87 38 -126 8 l-26 -21 -188 61 c-103 33 -302
96 -442 140 -140 44 -285 91 -322 103 l-68 22 0 51 c0 56 -9 97 -19 90 -4 -2
-30 -5 -58 -6 l-51 -2 5 -36 c2 -23 -3 -49 -14 -70 -19 -38 -18 -37 -142 -42
l-74 -2 -20 38 c-15 30 -18 51 -14 96 5 62 8 58 -65 88 -26 10 -29 8 -48 -30
-66 -128 -4 -290 132 -349 67 -29 170 -25 236 9 l44 22 55 -43 c165 -130 271
-208 388 -286 184 -122 336 -213 346 -206 24 14 -3 38 -141 123 -197 122 -570
388 -608 434 -11 13 -10 21 10 49 12 18 24 34 25 36 0 2 97 -28 215 -67 117
-38 317 -102 443 -141 352 -108 355 -110 355 -137 0 -71 65 -120 137 -101 l41
10 243 -204 c134 -112 288 -239 342 -281 53 -43 97 -79 97 -81 0 -2 -7 -20
-15 -40 -10 -23 -22 -36 -34 -36 -36 0 -263 70 -395 122 -72 28 -213 91 -314
140 -150 73 -186 87 -198 77 -8 -7 -11 -16 -7 -20 4 -4 82 -44 171 -89 245
-122 478 -210 667 -254 l90 -21 6 -46 c22 -151 164 -250 315 -219 110 23 198
114 210 216 l6 50 80 18 c193 43 448 141 696 265 140 71 155 81 143 100 -7 11
-40 -1 -168 -64 -262 -129 -584 -250 -723 -271 -33 -5 -36 -3 -52 35 l-16 41
101 78 c56 43 213 170 350 281 l247 202 35 -11 c69 -23 130 18 137 90 3 33 5
35 83 59 44 14 269 87 499 163 231 76 422 138 425 138 3 0 16 -18 29 -40 l22
-39 -106 -83 c-127 -100 -444 -319 -572 -395 -102 -61 -104 -63 -93 -82 11
-17 35 -4 211 107 154 98 346 234 469 331 46 36 92 72 102 79 16 12 26 10 74
-13 49 -24 64 -27 128 -23 79 5 124 24 175 72 102 95 107 257 10 362 l-41 44
46 108 c97 230 152 423 187 662 24 166 24 170 2 170 -16 0 -21 -20 -41 -151
-36 -245 -108 -498 -201 -703 -27 -60 -34 -67 -53 -62 -12 4 -36 9 -54 13 -31
5 -31 7 -43 87 -28 197 -113 613 -164 803 -13 47 -12 53 5 80 24 36 24 70 -1
110 -15 26 -17 38 -9 65 31 106 136 675 162 872 l12 100 53 11 c61 14 52 23
104 -105 105 -258 168 -500 199 -767 11 -100 15 -113 32 -113 17 0 18 6 12 68
-13 136 -56 373 -90 492 -20 67 -64 196 -100 286 -36 90 -65 166 -65 169 0 4
13 17 29 31 68 57 98 172 71 272 -12 47 -67 115 -112 138 -26 13 -32 13 -57
-2 l-29 -17 29 -24 c31 -26 39 -49 14 -39 -11 4 -9 -3 7 -24 13 -18 23 -49 26
-82 l4 -53 -114 0 c-62 0 -118 3 -125 8 -6 4 -14 1 -17 -5 -3 -7 -4 16 -1 52
2 36 4 79 4 97 0 17 5 34 11 38 15 9 2 25 -22 25 -18 0 -19 2 -7 17 9 12 3 10
-18 -5 l-33 -23 -127 94 c-121 89 -482 331 -585 391 -44 25 -68 28 -68 6 0 -5
17 -19 38 -31 188 -115 608 -400 689 -468 l23 -19 -21 -46 c-11 -25 -26 -46
-34 -46 -20 0 -533 159 -770 238 l-200 67 -13 40 c-18 57 -56 88 -101 83 -20
-3 -44 -8 -53 -12 -12 -6 -42 15 -115 81 -89 80 -207 183 -273 237 -18 16 -21
17 -11 3 22 -29 6 -30 -28 -2 -17 15 -31 25 -31 22z m-252 -448 c131 -14 372
-77 512 -134 601 -243 1041 -774 1141 -1380 22 -131 17 -408 -9 -542 -104
-527 -468 -978 -995 -1233 -418 -203 -830 -256 -1276 -165 -787 161 -1387 748
-1492 1460 -71 481 73 944 418 1346 191 223 461 411 754 527 140 55 372 113
504 125 93 8 353 6 443 -4z m2160 -2815 c13 -4 21 -12 18 -20 -3 -7 2 -18 10
-24 25 -22 17 -50 -21 -66 -47 -19 -98 -18 -125 4 l-23 18 33 37 c20 23 27 37
19 38 -20 1 22 17 46 18 11 0 30 -2 43 -5z m-2345 -1265 c35 -29 67 -72 50
-67 -4 1 -19 -4 -32 -11 -31 -17 -86 -18 -134 -2 l-36 12 24 40 c17 25 21 39
13 40 -22 1 25 18 52 18 14 1 42 -12 63 -30z"/>
<path d="M4455 6371 c63 -6 55 -7 -80 -14 -82 -5 -175 -10 -205 -11 -66 -4
-80 -22 -80 -107 0 -54 -5 -66 -109 -242 -149 -251 -141 -234 -141 -325 0
-107 21 -173 71 -223 55 -55 110 -79 185 -79 80 0 145 23 193 70 66 64 73 87
72 219 -2 116 -1 117 58 304 33 103 62 201 66 217 l7 30 837 0 c656 0 840 -3
850 -12 18 -18 4 99 -16 130 -33 53 -16 52 -930 50 -466 -1 -816 -4 -778 -7z"/>
<path d="M4901 5960 c-7 -58 -17 -129 -22 -159 -14 -83 -11 -237 5 -275 20
-47 73 -104 120 -128 58 -30 172 -36 233 -13 56 22 118 76 144 126 14 29 19
59 19 126 0 93 -32 394 -38 355 -3 -19 -5 -20 -17 -8 -10 10 -45 14 -127 14
-62 0 -141 3 -175 6 -40 3 -63 1 -63 -5 0 -6 -12 -9 -27 -7 -23 2 -29 9 -33
38 -4 26 -9 9 -19 -70z"/>
<path d="M6279 6003 c11 -22 10 -22 -14 -13 -17 7 -24 7 -20 0 6 -10 -3 -13
-37 -13 -10 0 -18 -3 -18 -6 0 -4 -28 -4 -62 1 -37 4 -94 3 -138 -3 -41 -5
-85 -11 -97 -13 -13 -2 -23 1 -23 7 0 6 -2 8 -5 5 -3 -2 6 -42 20 -89 20 -69
25 -106 25 -207 0 -146 8 -171 78 -233 57 -51 110 -71 192 -71 69 0 123 22
174 70 61 59 76 101 76 219 l0 101 -71 124 c-39 67 -75 128 -81 133 -6 6 -6 1
1 -12z"/>
<path d="M6322 5294 c-2 -19 -9 -21 -69 -23 -45 -1 -69 2 -74 11 -5 7 -9 -86
-9 -207 -1 -121 -3 -319 -6 -440 -2 -121 -4 -226 -4 -232 0 -10 -25 -13 -90
-13 l-90 0 0 365 0 366 -25 24 -24 25 -249 0 c-237 0 -251 -1 -276 -21 l-26
-20 0 -370 0 -369 -627 2 -628 3 -3 433 -2 432 -65 2 c-91 2 -89 1 -97 18 -4
8 -7 -212 -7 -490 0 -546 -2 -533 55 -571 28 -18 59 -19 1134 -19 1064 0 1106
1 1136 19 63 38 64 47 63 478 -1 327 -11 671 -17 597z m-783 -543 c13 -24 -8
-55 -34 -50 -28 6 -42 34 -26 53 18 22 48 20 60 -3z m340 5 c22 -26 -19 -69
-49 -51 -11 7 -14 48 -3 58 11 12 40 8 52 -7z"/>
<path d="M4353 5160 c-35 -14 -42 -66 -43 -337 -1 -250 3 -285 34 -305 6 -4
198 -8 426 -8 228 0 420 4 426 8 30 20 34 55 34 322 0 160 -4 279 -10 290 -5
10 -25 23 -42 29 -40 13 -792 13 -825 1z"/>
<path d="M3812 7420 c-44 -18 -54 -87 -16 -124 22 -23 80 -20 104 4 20 20 27
74 12 96 -9 14 -47 34 -64 33 -7 0 -23 -4 -36 -9z"/>
<path d="M6379 7415 c-43 -23 -47 -75 -11 -117 17 -20 63 -24 93 -7 50 26 41
109 -13 128 -38 13 -37 13 -69 -4z m51 -5 c0 -5 -12 -10 -27 -10 -22 0 -25 2
-13 10 20 13 40 13 40 0z"/>
<path d="M2325 5315 c-50 -49 -15 -135 55 -135 41 0 80 39 80 80 0 41 -39 80
-80 80 -19 0 -40 -9 -55 -25z"/>
<path d="M7834 5316 c-58 -49 -25 -136 50 -136 79 1 111 91 49 140 -34 26 -66
25 -99 -4z"/>
<path d="M2370 5103 c0 -45 33 -250 55 -348 34 -147 122 -391 187 -519 17 -33
22 -37 34 -24 12 12 11 21 -10 63 -101 211 -197 556 -222 803 -6 51 -10 62
-25 62 -15 0 -19 -8 -19 -37z"/>
<path d="M3815 3268 c-49 -26 -59 -77 -24 -122 27 -35 86 -36 117 -3 61 65
-15 168 -93 125z"/>
<path d="M6366 3259 c-20 -16 -26 -29 -26 -59 0 -51 30 -80 81 -80 71 0 105
85 54 135 -30 31 -73 32 -109 4z"/>
</g>
</svg>
