<?xml version="1.0" standalone="no"?>
<!DOCTYPE svg PUBLIC "-//W3C//DTD SVG 20010904//EN"
 "http://www.w3.org/TR/2001/REC-SVG-20010904/DTD/svg10.dtd">
<svg version="1.0" xmlns="http://www.w3.org/2000/svg"
 width="64.000000pt" height="64.000000pt" viewBox="0 0 64.000000 64.000000"
 preserveAspectRatio="xMidYMid meet">

<g transform="translate(0.000000,64.000000) scale(0.100000,-0.100000)"
fill="#000000" stroke="none">
<path d="M337 515 c-17 -23 -24 -25 -103 -25 -82 0 -85 -1 -94 -26 -16 -42
-11 -69 18 -97 30 -29 51 -34 69 -16 8 8 17 7 32 -3 17 -10 25 -10 41 0 16 10
24 10 40 0 16 -10 24 -10 40 0 16 10 24 10 40 0 16 -10 24 -10 41 0 15 10 24
10 34 2 21 -17 54 -2 61 27 8 31 -14 130 -34 149 -9 10 -38 14 -90 14 -70 -1
-79 -3 -95 -25z"/>
<path d="M164 286 c-3 -8 -4 -29 -2 -48 l3 -33 55 0 55 0 0 45 0 45 -53 3
c-39 2 -54 -1 -58 -12z"/>
<path d="M347 294 c-4 -4 -7 -49 -7 -101 l0 -93 70 0 71 0 -3 98 -3 97 -60 3
c-34 2 -64 0 -68 -4z"/>
</g>
</svg>
